<svg xmlns="http://www.w3.org/2000/svg" viewBox="0 0 24 24" fill="none" stroke="currentColor" strokeWidth="1.5" strokeMiterlimit="10">    
<g  class="iso-g"><path d="M21 16V8a2 2 0 0 0-1-1.73l-7-4a2 2 0 0 0-2 0l-7 4A2 2 0 0 0 3 8v8a2 2 0 0 0 1 1.73l7 4a2 2 0 0 0 2 0l7-4A2 2 0 0 0 21 16z"></path><polyline points="3.27 6.96 12 12.01 20.73 6.96"></polyline><line x1="12" y1="22.08" x2="12" y2="12"></line></g>
<g  class="front-g"><path d="M12 12v10c-.3 0-.7-.1-1-.3l-7-4c-.6-.4-1-1-1-1.7V8c0-.4.1-.7.3-1l8.7 5z"/><path d="M12 22c.3 0 .7-.1 1-.3l7-4c.6-.4 1-1 1-1.7V8c0-.4-.1-.7-.3-1-.2-.3-.4-.5-.7-.7l-7-4c-.6-.4-1.4-.4-2 0l-7 4c-.3.1-.5.4-.7.7-.2.3-.3.6-.3 1v8c0 .7.4 1.4 1 1.7l7 4c.3.2.7.3 1 .3z"/><path d="M3.3 7h0l8.7 5 8.7-5h0M12 22.1V12h0"/></g>
<g  class="left-g"><path d="M13 21.7c-.3.2-.7.3-1 .3V12l8.7-5c.2.3.3.6.3 1v8c0 .7-.4 1.3-1 1.7l-7 4z"/><path d="M12 22c.3 0 .7-.1 1-.3l7-4c.6-.4 1-1 1-1.7V8c0-.4-.1-.7-.3-1-.2-.3-.4-.5-.7-.7l-7-4c-.6-.4-1.4-.4-2 0l-7 4c-.3.1-.5.4-.7.7S3 7.6 3 8v8c0 .7.4 1.4 1 1.7l7 4c.3.2.7.3 1 .3z"/><path d="M3.3 7l8.7 5 8.7-5M12 22.1V12"/></g>
</svg>
