<svg xmlns="http://www.w3.org/2000/svg" viewBox="0 0 24 24"><g class="drone-wings" fill="none" stroke="currentColor" strokeWidth="1.5" strokeMiterlimit="10"><circle cx="6" cy="6" r="4"/><circle cx="18" cy="18" r="4"/><circle cx="18" cy="6" r="4"/><circle cx="6" cy="18" r="4"/></g><path fill="none" stroke="currentColor" stroke-width="1.5" stroke-linecap="round" stroke-miterlimit="10" d="M13 14h-2c-.6 0-1-.4-1-1v-2c0-.6.4-1 1-1h2c.6 0 1 .4 1 1v2c0 .6-.4 1-1 1z"/><circle fill="none" stroke="currentColor" stroke-linecap="round" stroke-miterlimit="10" cx="12" cy="12" r="1.5"/><g fill="none" stroke="currentColor" stroke-width="1.5" stroke-linecap="round" stroke-miterlimit="10"><path d="M10 10L6 6M14 10l4-4M10 14l-4 4M14 14l4 4"/></g></svg>