<svg xmlns="http://www.w3.org/2000/svg" viewBox="0 0 24 24"><g fill="none" stroke="currentColor" strokeWidth="1.5" strokeMiterlimit="10"><path d="M12.2 12.6c0-1.7 8-10.4 9.6-10.4M12.2 12.6c0-.7 6.5-8.3 7.1-8.3M12.2 12.6c0-.6 8.1-6.6 8.9-6.6M12.2 12.6s8.9-.5 9.8-.5M12.2 12.6c0 .8 7.5 9.6 8.3 9.6M12.2 12.5c0 .8.8 9.2.9 9.2M12.2 12.4c0 .7-7 7.5-7.7 7.5M12.2 12.4c0 .4-8.8 4.3-9.7 4.3M12.2 12.4c0 .1-9 .7-9.8.7M12.2 12.4c0-.3-9.3-3.5-10.2-3.5M12.2 12.4c0-.8-8.6-9.5-9.4-9.5M12.2 12.4c0-.5-2.9-6.2-3.2-6.2M12.2 12.4c0-.6-.1-7.2-.1-7.2M12.1 12.4c0-.9 4-10.3 4.3-10.3"/></g></svg>