<svg xmlns="http://www.w3.org/2000/svg" viewBox="0 0 24 24" stroke-miterlimit="10" fill="none" stroke="currentColor" strokeWidth="2" strokeLinecap="round" strokeLinejoin="round"><g><path d="M3.9 17.5c-.5-.3-.9-1-.9-1.5V8c0-.6.4-1.2.9-1.5l7.2-4c.5-.3 1.3-.3 1.7 0l7.3 4c.5.3.9 1 .9 1.5v8c0 .5-.4 1.2-.9 1.5l-7.3 4c-.5.3-1.3.3-1.7 0l-7.2-4z"/><path d="M7.5 9.5v4c0 .6.4 1.2.9 1.5l2.8 1.5c.5.3 1.3.3 1.7 0l2.7-1.5c.5-.3.9-.9.9-1.5v-4"/><path d="M12 21.8V17"/><path d="M7.5 9.5l3.6-2c.5-.3 1.3-.3 1.7 0l3.6 2"/><path stroke-miterlimit="10" d="M3.5 7.2l4 2.3M20.7 7.2l-4.2 2.3M12 7.3V12M7.7 14.4L12 12M12 12l4.3 2.4"/></g></svg>

