<svg xmlns="http://www.w3.org/2000/svg" fill="none" stroke="currentColor" strokeWidth="2" strokeLinecap="round" strokeLinejoin="round" viewBox="0 0 24 24"><g><path d="M12.3 1.1c-.1-.1-.4-.1-.5 0-.8.5-1.3 1.1-1.9 1.6-2.2 2.1-2.3 4.6-1.8 7.1L5.9 12c-.3.3-.5 1-.3 1.5l1 3.1c0 .1.1.2.2.3.3.3.7.3 1 0l2-2 .2.7c0 .5.4.9.9.9H13c.5 0 .9-.4.9-.9l.2-.8 1.9 2c.3.3.7.3 1 0 .1-.1.1-.2.2-.3l1-3.1c.2-.5 0-1.1-.3-1.5l-2.2-2.2c.6-2.5.4-5-1.7-7.1-.4-.5-.9-1-1.7-1.5zm.5 5.6c-.5.5-1.2.5-1.7 0s-.5-1.2 0-1.7 1.2-.5 1.7 0 .5 1.3 0 1.7zM8.1 9.8l2.1 6.3M15.9 9.8l-2.1 6.3"/><circle cx="12" cy="21" r="1.5"/></g></svg>

