<svg xmlns="http://www.w3.org/2000/svg" viewBox="0 0 24 24" fill="none" strokeWidth="2" strokeLinecap="round" strokeLinejoin="round">
<g class="cut-g no-cut-g"><path d="M21 16V8a2 2 0 0 0-1-1.73l-7-4a2 2 0 0 0-2 0l-7 4A2 2 0 0 0 3 8v8a2 2 0 0 0 1 1.73l7 4a2 2 0 0 0 2 0l7-4A2 2 0 0 0 21 16z"></path><polyline points="3.27 6.96 12 12.01 20.73 6.96"></polyline><line x1="12" y1="22.08" x2="12" y2="12"></line></g>
<g class="cut-g cut-1-g"><path d="M4.5 15.2c0 .6.4 1.2.9 1.5l8.3 4.7c.5.3 1.3.3 1.7 0l3.3-1.9c.5-.3.9-.9.9-1.5V8.7c0-.6-.4-1.2-.9-1.5l-8.3-4.7c-.5-.3-1.3-.3-1.7 0L5.4 4.3c-.5.3-.9 1-.9 1.5v9.4z"/><path d="M4.8 5l9.7 5.5h0l4.7-2.7M14.5 21.7V10.5"/></g>
<g class="cut-g cut-2-g"><path d="M19.5 15.2c0 .6-.4 1.2-.9 1.5l-8.3 4.7c-.5.3-1.3.3-1.7 0l-3.3-1.9c-.5-.3-.9-.9-.9-1.5V8.7c0-.6.4-1.2.9-1.5l8.3-4.7c.5-.3 1.3-.3 1.7 0l3.3 1.9c.5.3.9.9.9 1.5v9.3z"/><path d="M19.2 5l-9.7 5.5h0L4.8 7.8"/><path d="M9.5 21.7V10.5"/></g>
<g class="cut-g cut-3-g"><path d="M3.9 17.5c-.5-.3-.9-.9-.9-1.5V8c0-.5.4-1.2.9-1.5l7.2-4c.5-.3 1.3-.3 1.7 0L15.6 4c.5.3.9.9.9 1.5v3c0 .6.4 1.2.9 1.5l2.8 1.5c.5.3.9.9.9 1.5v3c0 .6-.4 1.2-.9 1.5l-7.2 4c-.5.3-1.3.3-1.7 0l-7.4-4z"/><path d="M12 21.4v-4.2M12 17l8.7-4.8"/><path d="M12 17l-4.5-2.5M7.5 14.5l9-5M7.5 14.3V9.5"/><path d="M7.2 9.2l-4-2.1M16.2 4.6L7.4 9.4"/></g>
<g class="cut-g cut-4-g"><path d="M3.9 17.5c-.5-.3-.9-1-.9-1.5V8c0-.6.4-1.2.9-1.5l7.2-4c.5-.3 1.3-.3 1.7 0l7.3 4c.5.3.9 1 .9 1.5v8c0 .5-.4 1.2-.9 1.5l-7.3 4c-.5.3-1.3.3-1.7 0l-7.2-4z"/><path d="M7.5 9.5v4c0 .6.4 1.2.9 1.5l2.8 1.5c.5.3 1.3.3 1.7 0l2.7-1.5c.5-.3.9-.9.9-1.5v-4"/><path d="M12 21.8V17"/><path d="M7.5 9.5l3.6-2c.5-.3 1.3-.3 1.7 0l3.6 2"/><path stroke-miterlimit="10" d="M3.5 7.2l4 2.3M20.7 7.2l-4.2 2.3M12 7.3V12M7.7 14.4L12 12M12 12l4.3 2.4"/></g>
<g class="cut-g cut-5-g"><path fill="none" stroke="currentColor" stroke-width="2" d="M 8.12,8.12 C 8.12,8.12 12.00,12.00 12.00,12.00M 14.47,14.48 C 14.47,14.48 20.00,20.00 20.00,20.00M 20.00,4.00 C 20.00,4.00 8.12,15.88 8.12,15.88M 9.00,18.00 C 9.00,19.66 7.66,21.00 6.00,21.00 4.34,21.00 3.00,19.66 3.00,18.00 3.00,16.34 4.34,15.00 6.00,15.00 7.66,15.00 9.00,16.34 9.00,18.00 Z M 9.00,6.00 C 9.00,7.66 7.66,9.00 6.00,9.00 4.34,9.00 3.00,7.66 3.00,6.00 3.00,4.34 4.34,3.00 6.00,3.00 7.66,3.00 9.00,4.34 9.00,6.00 Z" /></g>
</svg>
