<svg xmlns="http://www.w3.org/2000/svg" viewBox="0 0 24 24" stroke-miterlimit="10" fill="none" stroke="currentColor" strokeWidth="2" strokeLinecap="round" strokeLinejoin="round"><g><path d="M3.9 17.5c-.5-.3-.9-.9-.9-1.5V8c0-.5.4-1.2.9-1.5l7.2-4c.5-.3 1.3-.3 1.7 0L15.6 4c.5.3.9.9.9 1.5v3c0 .6.4 1.2.9 1.5l2.8 1.5c.5.3.9.9.9 1.5v3c0 .6-.4 1.2-.9 1.5l-7.2 4c-.5.3-1.3.3-1.7 0l-7.4-4z"/><path d="M12 21.4v-4.2M12 17l8.7-4.8"/><path d="M12 17l-4.5-2.5M7.5 14.5l9-5M7.5 14.3V9.5"/><path d="M7.2 9.2l-4-2.1M16.2 4.6L7.4 9.4"/></g></svg>

